<mxfile host="app.diagrams.net" agent="Mozilla/5.0 (Windows NT 10.0; Win64; x64) AppleWebKit/537.36 (KHTML, like Gecko) Chrome/129.0.0.0 Safari/537.36" version="24.7.16">
  <diagram name="PÃ¡gina-1" id="BCtAysCY__kkYpLPVjBJ">
    <mxGraphModel dx="1467" dy="522" grid="1" gridSize="10" guides="1" tooltips="1" connect="1" arrows="1" fold="1" page="1" pageScale="1" pageWidth="827" pageHeight="1169" math="0" shadow="0">
      <root>
        <mxCell id="0" />
        <mxCell id="1" parent="0" />
        <mxCell id="eZceEVZ6kA_NZzQR3GiB-1" value="Sistema de Contas a Pagar" style="ellipse;whiteSpace=wrap;html=1;aspect=fixed;" vertex="1" parent="1">
          <mxGeometry x="300" y="150" width="100" height="100" as="geometry" />
        </mxCell>
        <mxCell id="eZceEVZ6kA_NZzQR3GiB-2" value="Fornecedor" style="rounded=0;whiteSpace=wrap;html=1;" vertex="1" parent="1">
          <mxGeometry x="90" y="130" width="100" height="50" as="geometry" />
        </mxCell>
        <mxCell id="eZceEVZ6kA_NZzQR3GiB-3" value="Depto de Contas a Pagar" style="rounded=0;whiteSpace=wrap;html=1;" vertex="1" parent="1">
          <mxGeometry x="540" y="120" width="120" height="60" as="geometry" />
        </mxCell>
        <mxCell id="eZceEVZ6kA_NZzQR3GiB-6" value="nro_duplicata" style="html=1;verticalAlign=bottom;endArrow=block;curved=0;rounded=0;" edge="1" parent="1">
          <mxGeometry x="0.0025" width="80" relative="1" as="geometry">
            <mxPoint x="191" y="170" as="sourcePoint" />
            <mxPoint x="310" y="170" as="targetPoint" />
            <mxPoint as="offset" />
          </mxGeometry>
        </mxCell>
        <mxCell id="eZceEVZ6kA_NZzQR3GiB-7" value="valor_duplicata" style="html=1;verticalAlign=bottom;endArrow=block;curved=0;rounded=0;exitX=1.014;exitY=0.837;exitDx=0;exitDy=0;exitPerimeter=0;entryX=0.4;entryY=0;entryDx=0;entryDy=0;entryPerimeter=0;" edge="1" parent="1" target="eZceEVZ6kA_NZzQR3GiB-1">
          <mxGeometry x="0.0025" width="80" relative="1" as="geometry">
            <mxPoint x="190" y="150" as="sourcePoint" />
            <mxPoint x="308" y="150" as="targetPoint" />
            <mxPoint as="offset" />
          </mxGeometry>
        </mxCell>
        <mxCell id="eZceEVZ6kA_NZzQR3GiB-8" value="vencimento_duplicata" style="html=1;verticalAlign=bottom;endArrow=block;curved=0;rounded=0;entryX=0.4;entryY=0;entryDx=0;entryDy=0;entryPerimeter=0;" edge="1" parent="1">
          <mxGeometry x="0.1026" width="80" relative="1" as="geometry">
            <mxPoint x="160" y="184" as="sourcePoint" />
            <mxPoint x="300" y="199.66" as="targetPoint" />
            <mxPoint as="offset" />
            <Array as="points">
              <mxPoint x="160" y="200" />
            </Array>
          </mxGeometry>
        </mxCell>
        <mxCell id="eZceEVZ6kA_NZzQR3GiB-9" value="cheque" style="html=1;verticalAlign=bottom;endArrow=block;curved=0;rounded=0;entryX=1;entryY=0;entryDx=0;entryDy=0;exitX=0;exitY=0.75;exitDx=0;exitDy=0;" edge="1" parent="1" source="eZceEVZ6kA_NZzQR3GiB-3" target="eZceEVZ6kA_NZzQR3GiB-1">
          <mxGeometry x="0.0025" width="80" relative="1" as="geometry">
            <mxPoint x="450" y="165" as="sourcePoint" />
            <mxPoint x="500" y="220" as="targetPoint" />
            <mxPoint as="offset" />
          </mxGeometry>
        </mxCell>
        <mxCell id="eZceEVZ6kA_NZzQR3GiB-10" value="relatorio_a_pagar" style="html=1;verticalAlign=bottom;endArrow=block;curved=0;rounded=0;entryX=1;entryY=0;entryDx=0;entryDy=0;exitX=0.16;exitY=1.011;exitDx=0;exitDy=0;exitPerimeter=0;" edge="1" parent="1" source="eZceEVZ6kA_NZzQR3GiB-3">
          <mxGeometry x="0.0025" width="80" relative="1" as="geometry">
            <mxPoint x="555" y="190" as="sourcePoint" />
            <mxPoint x="400" y="190" as="targetPoint" />
            <mxPoint as="offset" />
            <Array as="points">
              <mxPoint x="559" y="190" />
            </Array>
          </mxGeometry>
        </mxCell>
        <mxCell id="eZceEVZ6kA_NZzQR3GiB-12" value="Diretor" style="rounded=0;whiteSpace=wrap;html=1;" vertex="1" parent="1">
          <mxGeometry x="410" y="310" width="100" height="40" as="geometry" />
        </mxCell>
        <mxCell id="eZceEVZ6kA_NZzQR3GiB-15" value="cheque" style="html=1;verticalAlign=bottom;endArrow=block;curved=0;rounded=0;entryX=0;entryY=0.75;entryDx=0;entryDy=0;exitX=0.5;exitY=1;exitDx=0;exitDy=0;startArrow=block;startFill=1;" edge="1" parent="1" source="eZceEVZ6kA_NZzQR3GiB-1" target="eZceEVZ6kA_NZzQR3GiB-12">
          <mxGeometry x="0.5714" width="80" relative="1" as="geometry">
            <mxPoint x="525" y="299.58" as="sourcePoint" />
            <mxPoint x="370" y="299.58" as="targetPoint" />
            <mxPoint as="offset" />
            <Array as="points">
              <mxPoint x="350" y="340" />
            </Array>
          </mxGeometry>
        </mxCell>
        <mxCell id="eZceEVZ6kA_NZzQR3GiB-16" value="relatorio" style="html=1;verticalAlign=bottom;endArrow=block;curved=0;rounded=0;startArrow=block;startFill=1;entryX=0.25;entryY=0;entryDx=0;entryDy=0;exitX=0.736;exitY=0.974;exitDx=0;exitDy=0;exitPerimeter=0;" edge="1" parent="1" source="eZceEVZ6kA_NZzQR3GiB-1" target="eZceEVZ6kA_NZzQR3GiB-12">
          <mxGeometry x="0.11" width="80" relative="1" as="geometry">
            <mxPoint x="385" y="240" as="sourcePoint" />
            <mxPoint x="460" y="260" as="targetPoint" />
            <mxPoint as="offset" />
            <Array as="points">
              <mxPoint x="374" y="290" />
              <mxPoint x="435" y="290" />
            </Array>
          </mxGeometry>
        </mxCell>
        <mxCell id="eZceEVZ6kA_NZzQR3GiB-17" value="pagamento" style="html=1;verticalAlign=bottom;endArrow=block;curved=0;rounded=0;entryX=1;entryY=0;entryDx=0;entryDy=0;exitX=0.333;exitY=0.961;exitDx=0;exitDy=0;exitPerimeter=0;" edge="1" parent="1">
          <mxGeometry x="-0.0016" width="80" relative="1" as="geometry">
            <mxPoint x="579.96" y="179.66000000000008" as="sourcePoint" />
            <mxPoint x="401" y="211" as="targetPoint" />
            <mxPoint as="offset" />
            <Array as="points">
              <mxPoint x="580" y="211" />
            </Array>
          </mxGeometry>
        </mxCell>
        <mxCell id="eZceEVZ6kA_NZzQR3GiB-18" value="Banco" style="rounded=0;whiteSpace=wrap;html=1;" vertex="1" parent="1">
          <mxGeometry x="110" y="270" width="100" height="40" as="geometry" />
        </mxCell>
        <mxCell id="eZceEVZ6kA_NZzQR3GiB-19" value="comprovante_pagto" style="html=1;verticalAlign=bottom;endArrow=block;curved=0;rounded=0;exitX=1;exitY=0.25;exitDx=0;exitDy=0;entryX=0.3;entryY=1;entryDx=0;entryDy=0;entryPerimeter=0;" edge="1" parent="1" source="eZceEVZ6kA_NZzQR3GiB-18" target="eZceEVZ6kA_NZzQR3GiB-1">
          <mxGeometry x="-0.2908" width="80" relative="1" as="geometry">
            <mxPoint x="230" y="280" as="sourcePoint" />
            <mxPoint x="330" y="330" as="targetPoint" />
            <mxPoint as="offset" />
            <Array as="points">
              <mxPoint x="330" y="280" />
            </Array>
          </mxGeometry>
        </mxCell>
        <mxCell id="eZceEVZ6kA_NZzQR3GiB-20" value="agenda" style="shape=partialRectangle;whiteSpace=wrap;html=1;left=0;right=0;fillColor=none;" vertex="1" parent="1">
          <mxGeometry x="615" y="530" width="100" height="30" as="geometry" />
        </mxCell>
        <mxCell id="eZceEVZ6kA_NZzQR3GiB-23" value="relatorio_pagtos" style="html=1;verticalAlign=bottom;endArrow=block;curved=0;rounded=0;exitX=0;exitY=0.75;exitDx=0;exitDy=0;entryX=0.747;entryY=0.043;entryDx=0;entryDy=0;entryPerimeter=0;" edge="1" parent="1" target="eZceEVZ6kA_NZzQR3GiB-1">
          <mxGeometry x="0.0038" width="80" relative="1" as="geometry">
            <mxPoint x="540" y="142" as="sourcePoint" />
            <mxPoint x="380" y="140" as="targetPoint" />
            <mxPoint as="offset" />
            <Array as="points">
              <mxPoint x="375" y="140" />
            </Array>
          </mxGeometry>
        </mxCell>
        <mxCell id="eZceEVZ6kA_NZzQR3GiB-24" value="comprovante_pagto" style="html=1;verticalAlign=bottom;endArrow=block;curved=0;rounded=0;exitX=1;exitY=0.25;exitDx=0;exitDy=0;" edge="1" parent="1">
          <mxGeometry x="-0.2908" width="80" relative="1" as="geometry">
            <mxPoint x="390" y="231" as="sourcePoint" />
            <mxPoint x="590" y="182" as="targetPoint" />
            <mxPoint as="offset" />
            <Array as="points">
              <mxPoint x="590" y="231" />
            </Array>
          </mxGeometry>
        </mxCell>
        <mxCell id="eZceEVZ6kA_NZzQR3GiB-25" value="duplicata_paga" style="html=1;verticalAlign=bottom;endArrow=block;curved=0;rounded=0;exitX=0;exitY=0.75;exitDx=0;exitDy=0;" edge="1" parent="1">
          <mxGeometry x="-0.1347" y="1" width="80" relative="1" as="geometry">
            <mxPoint x="540" y="122" as="sourcePoint" />
            <mxPoint x="360" y="148" as="targetPoint" />
            <mxPoint as="offset" />
            <Array as="points">
              <mxPoint x="360" y="122" />
            </Array>
          </mxGeometry>
        </mxCell>
        <mxCell id="eZceEVZ6kA_NZzQR3GiB-26" value="duplicata_a_pagar" style="html=1;verticalAlign=bottom;endArrow=none;curved=0;rounded=0;exitX=0.25;exitY=0;exitDx=0;exitDy=0;entryX=0.5;entryY=0;entryDx=0;entryDy=0;startArrow=block;startFill=1;endFill=0;" edge="1" parent="1" source="eZceEVZ6kA_NZzQR3GiB-3" target="eZceEVZ6kA_NZzQR3GiB-1">
          <mxGeometry x="-0.2395" width="80" relative="1" as="geometry">
            <mxPoint x="570" y="117" as="sourcePoint" />
            <mxPoint x="350" y="147" as="targetPoint" />
            <mxPoint as="offset" />
            <Array as="points">
              <mxPoint x="570" y="99" />
              <mxPoint x="350" y="99" />
            </Array>
          </mxGeometry>
        </mxCell>
        <mxCell id="eZceEVZ6kA_NZzQR3GiB-27" value="relatorio_pagas" style="html=1;verticalAlign=bottom;endArrow=block;curved=0;rounded=0;entryX=1;entryY=0;entryDx=0;entryDy=0;exitX=0.833;exitY=1;exitDx=0;exitDy=0;exitPerimeter=0;" edge="1" parent="1" source="eZceEVZ6kA_NZzQR3GiB-3">
          <mxGeometry x="-0.2322" y="16" width="80" relative="1" as="geometry">
            <mxPoint x="654.96" y="187.34000000000003" as="sourcePoint" />
            <mxPoint x="381" y="244" as="targetPoint" />
            <mxPoint as="offset" />
            <Array as="points">
              <mxPoint x="640" y="244" />
            </Array>
          </mxGeometry>
        </mxCell>
        <mxCell id="eZceEVZ6kA_NZzQR3GiB-28" value="P1&lt;div&gt;&amp;nbsp;Receber duplicatas&lt;br&gt;&lt;/div&gt;" style="ellipse;whiteSpace=wrap;html=1;aspect=fixed;" vertex="1" parent="1">
          <mxGeometry x="407" y="430" width="100" height="100" as="geometry" />
        </mxCell>
        <mxCell id="eZceEVZ6kA_NZzQR3GiB-29" value="P2&lt;div&gt;Analisar duplicatas a vencer&lt;br&gt;&lt;/div&gt;" style="ellipse;whiteSpace=wrap;html=1;aspect=fixed;" vertex="1" parent="1">
          <mxGeometry x="415" y="560" width="100" height="100" as="geometry" />
        </mxCell>
        <mxCell id="eZceEVZ6kA_NZzQR3GiB-30" value="P3&lt;div&gt;Controlar pagto das duplicatas&lt;br&gt;&lt;/div&gt;" style="ellipse;whiteSpace=wrap;html=1;aspect=fixed;" vertex="1" parent="1">
          <mxGeometry x="415" y="690" width="100" height="100" as="geometry" />
        </mxCell>
        <mxCell id="eZceEVZ6kA_NZzQR3GiB-31" value="P4&lt;div&gt;Gerar relatÃ³rios gerenciais&lt;br&gt;&lt;/div&gt;" style="ellipse;whiteSpace=wrap;html=1;aspect=fixed;" vertex="1" parent="1">
          <mxGeometry x="150" y="800" width="100" height="100" as="geometry" />
        </mxCell>
        <mxCell id="eZceEVZ6kA_NZzQR3GiB-33" value="Fornecedor" style="rounded=0;whiteSpace=wrap;html=1;" vertex="1" parent="1">
          <mxGeometry x="195" y="410" width="100" height="50" as="geometry" />
        </mxCell>
        <mxCell id="eZceEVZ6kA_NZzQR3GiB-34" value="nro_duplicata" style="html=1;verticalAlign=bottom;endArrow=block;curved=0;rounded=0;" edge="1" parent="1">
          <mxGeometry x="0.0025" width="80" relative="1" as="geometry">
            <mxPoint x="296" y="450" as="sourcePoint" />
            <mxPoint x="415" y="450" as="targetPoint" />
            <mxPoint as="offset" />
          </mxGeometry>
        </mxCell>
        <mxCell id="eZceEVZ6kA_NZzQR3GiB-35" value="valor_duplicata" style="html=1;verticalAlign=bottom;endArrow=block;curved=0;rounded=0;exitX=1.014;exitY=0.837;exitDx=0;exitDy=0;exitPerimeter=0;entryX=0.4;entryY=0;entryDx=0;entryDy=0;entryPerimeter=0;" edge="1" parent="1">
          <mxGeometry x="0.0025" width="80" relative="1" as="geometry">
            <mxPoint x="295" y="430" as="sourcePoint" />
            <mxPoint x="445" y="430" as="targetPoint" />
            <mxPoint as="offset" />
          </mxGeometry>
        </mxCell>
        <mxCell id="eZceEVZ6kA_NZzQR3GiB-36" value="vencimento_duplicata" style="html=1;verticalAlign=bottom;endArrow=block;curved=0;rounded=0;entryX=0.4;entryY=0;entryDx=0;entryDy=0;entryPerimeter=0;" edge="1" parent="1">
          <mxGeometry x="0.1026" width="80" relative="1" as="geometry">
            <mxPoint x="265" y="464" as="sourcePoint" />
            <mxPoint x="405" y="479.65999999999997" as="targetPoint" />
            <mxPoint as="offset" />
            <Array as="points">
              <mxPoint x="265" y="480" />
            </Array>
          </mxGeometry>
        </mxCell>
        <mxCell id="eZceEVZ6kA_NZzQR3GiB-38" value="nro_duplicata" style="html=1;verticalAlign=bottom;endArrow=block;curved=0;rounded=0;entryX=0.376;entryY=-0.007;entryDx=0;entryDy=0;entryPerimeter=0;" edge="1" parent="1" target="eZceEVZ6kA_NZzQR3GiB-20">
          <mxGeometry x="0.032" width="80" relative="1" as="geometry">
            <mxPoint x="507" y="460" as="sourcePoint" />
            <mxPoint x="668" y="606" as="targetPoint" />
            <mxPoint as="offset" />
            <Array as="points">
              <mxPoint x="653" y="460" />
            </Array>
          </mxGeometry>
        </mxCell>
        <mxCell id="eZceEVZ6kA_NZzQR3GiB-39" value="valor_duplicata" style="html=1;verticalAlign=bottom;endArrow=block;curved=0;rounded=0;exitX=1.014;exitY=0.837;exitDx=0;exitDy=0;exitPerimeter=0;entryX=0.632;entryY=0.047;entryDx=0;entryDy=0;entryPerimeter=0;" edge="1" parent="1" target="eZceEVZ6kA_NZzQR3GiB-20">
          <mxGeometry x="0.0025" width="80" relative="1" as="geometry">
            <mxPoint x="485" y="440" as="sourcePoint" />
            <mxPoint x="635" y="440" as="targetPoint" />
            <mxPoint as="offset" />
            <Array as="points">
              <mxPoint x="678" y="440" />
            </Array>
          </mxGeometry>
        </mxCell>
        <mxCell id="eZceEVZ6kA_NZzQR3GiB-40" value="vencimento_duplicata" style="html=1;verticalAlign=bottom;endArrow=block;curved=0;rounded=0;exitX=0.988;exitY=0.576;exitDx=0;exitDy=0;exitPerimeter=0;entryX=0.144;entryY=0.027;entryDx=0;entryDy=0;entryPerimeter=0;" edge="1" parent="1" target="eZceEVZ6kA_NZzQR3GiB-20">
          <mxGeometry x="-0.1944" width="80" relative="1" as="geometry">
            <mxPoint x="506.99999999999994" y="483.5899999999999" as="sourcePoint" />
            <mxPoint x="705" y="420" as="targetPoint" />
            <mxPoint as="offset" />
            <Array as="points">
              <mxPoint x="629" y="484" />
            </Array>
          </mxGeometry>
        </mxCell>
        <mxCell id="eZceEVZ6kA_NZzQR3GiB-43" value="duplicata_a_pagar" style="html=1;verticalAlign=bottom;endArrow=block;curved=0;rounded=0;startArrow=none;startFill=0;endFill=1;entryX=1.008;entryY=0.388;entryDx=0;entryDy=0;entryPerimeter=0;" edge="1" parent="1" target="eZceEVZ6kA_NZzQR3GiB-29">
          <mxGeometry x="0.2371" y="1" width="80" relative="1" as="geometry">
            <mxPoint x="635" y="563" as="sourcePoint" />
            <mxPoint x="495" y="600" as="targetPoint" />
            <mxPoint as="offset" />
            <Array as="points">
              <mxPoint x="635" y="599" />
            </Array>
          </mxGeometry>
        </mxCell>
        <mxCell id="eZceEVZ6kA_NZzQR3GiB-45" value="Depto de Contas a Pagar" style="rounded=0;whiteSpace=wrap;html=1;" vertex="1" parent="1">
          <mxGeometry x="205" y="580" width="100" height="60" as="geometry" />
        </mxCell>
        <mxCell id="eZceEVZ6kA_NZzQR3GiB-46" value="duplicata_a_pagar" style="html=1;verticalAlign=bottom;endArrow=block;curved=0;rounded=0;startArrow=none;startFill=0;endFill=1;entryX=1.008;entryY=0.388;entryDx=0;entryDy=0;entryPerimeter=0;exitX=0.052;exitY=0.3;exitDx=0;exitDy=0;exitPerimeter=0;" edge="1" parent="1" source="eZceEVZ6kA_NZzQR3GiB-29">
          <mxGeometry x="-0.0949" width="80" relative="1" as="geometry">
            <mxPoint x="414.6" y="590.2" as="sourcePoint" />
            <mxPoint x="305" y="590" as="targetPoint" />
            <mxPoint as="offset" />
            <Array as="points" />
          </mxGeometry>
        </mxCell>
        <mxCell id="eZceEVZ6kA_NZzQR3GiB-47" value="relatorio_pagtos" style="html=1;verticalAlign=bottom;endArrow=block;curved=0;rounded=0;exitX=1.024;exitY=0.62;exitDx=0;exitDy=0;exitPerimeter=0;entryX=-0.004;entryY=0.572;entryDx=0;entryDy=0;entryPerimeter=0;" edge="1" parent="1">
          <mxGeometry x="0.0025" width="80" relative="1" as="geometry">
            <mxPoint x="307.4" y="614.2" as="sourcePoint" />
            <mxPoint x="414.6" y="614.2" as="targetPoint" />
            <mxPoint as="offset" />
            <Array as="points" />
          </mxGeometry>
        </mxCell>
        <mxCell id="eZceEVZ6kA_NZzQR3GiB-48" value="cheque" style="html=1;verticalAlign=bottom;endArrow=block;curved=0;rounded=0;exitX=1;exitY=0.75;exitDx=0;exitDy=0;entryX=0.028;entryY=0.756;entryDx=0;entryDy=0;entryPerimeter=0;" edge="1" parent="1" target="eZceEVZ6kA_NZzQR3GiB-29">
          <mxGeometry x="0.0025" width="80" relative="1" as="geometry">
            <mxPoint x="305" y="636" as="sourcePoint" />
            <mxPoint x="385" y="636" as="targetPoint" />
            <mxPoint as="offset" />
          </mxGeometry>
        </mxCell>
        <mxCell id="eZceEVZ6kA_NZzQR3GiB-49" value="Diretor" style="rounded=0;whiteSpace=wrap;html=1;" vertex="1" parent="1">
          <mxGeometry x="340" y="870" width="100" height="40" as="geometry" />
        </mxCell>
        <mxCell id="eZceEVZ6kA_NZzQR3GiB-50" value="cheque" style="html=1;verticalAlign=bottom;endArrow=block;curved=0;rounded=0;exitX=0.612;exitY=-0.065;exitDx=0;exitDy=0;entryX=0.173;entryY=0.936;entryDx=0;entryDy=0;entryPerimeter=0;startArrow=block;startFill=1;endFill=1;exitPerimeter=0;" edge="1" parent="1" source="eZceEVZ6kA_NZzQR3GiB-49" target="eZceEVZ6kA_NZzQR3GiB-30">
          <mxGeometry x="-0.1735" width="80" relative="1" as="geometry">
            <mxPoint x="327" y="810" as="sourcePoint" />
            <mxPoint x="440" y="810" as="targetPoint" />
            <mxPoint as="offset" />
            <Array as="points">
              <mxPoint x="401" y="784" />
            </Array>
          </mxGeometry>
        </mxCell>
        <mxCell id="eZceEVZ6kA_NZzQR3GiB-51" value="relatorio_pagtos" style="html=1;verticalAlign=bottom;endArrow=block;curved=0;rounded=0;startArrow=block;startFill=1;entryX=1;entryY=0.5;entryDx=0;entryDy=0;" edge="1" parent="1" target="eZceEVZ6kA_NZzQR3GiB-49">
          <mxGeometry x="0.0025" width="80" relative="1" as="geometry">
            <mxPoint x="460" y="790" as="sourcePoint" />
            <mxPoint x="465" y="890" as="targetPoint" />
            <mxPoint as="offset" />
            <Array as="points">
              <mxPoint x="460" y="890" />
            </Array>
          </mxGeometry>
        </mxCell>
        <mxCell id="eZceEVZ6kA_NZzQR3GiB-52" value="pagamento" style="html=1;verticalAlign=bottom;endArrow=block;curved=0;rounded=0;" edge="1" parent="1">
          <mxGeometry x="0.3006" y="-1" width="80" relative="1" as="geometry">
            <mxPoint x="235" y="643" as="sourcePoint" />
            <mxPoint x="425" y="712" as="targetPoint" />
            <mxPoint as="offset" />
            <Array as="points">
              <mxPoint x="235" y="712" />
            </Array>
          </mxGeometry>
        </mxCell>
        <mxCell id="eZceEVZ6kA_NZzQR3GiB-53" value="Banco" style="rounded=0;whiteSpace=wrap;html=1;" vertex="1" parent="1">
          <mxGeometry x="640" y="745" width="100" height="40" as="geometry" />
        </mxCell>
        <mxCell id="eZceEVZ6kA_NZzQR3GiB-54" value="comprovante_pagto" style="html=1;verticalAlign=bottom;endArrow=block;curved=0;rounded=0;entryX=1;entryY=1;entryDx=0;entryDy=0;exitX=0;exitY=0.75;exitDx=0;exitDy=0;" edge="1" parent="1" source="eZceEVZ6kA_NZzQR3GiB-53" target="eZceEVZ6kA_NZzQR3GiB-30">
          <mxGeometry x="-0.0476" width="80" relative="1" as="geometry">
            <mxPoint x="640" y="775" as="sourcePoint" />
            <mxPoint x="510" y="780" as="targetPoint" />
            <mxPoint as="offset" />
            <Array as="points" />
          </mxGeometry>
        </mxCell>
        <mxCell id="eZceEVZ6kA_NZzQR3GiB-55" value="comprovante_pagto" style="html=1;verticalAlign=bottom;endArrow=block;curved=0;rounded=0;exitX=0;exitY=0.5;exitDx=0;exitDy=0;entryX=0.184;entryY=1.033;entryDx=0;entryDy=0;entryPerimeter=0;" edge="1" parent="1" source="eZceEVZ6kA_NZzQR3GiB-30" target="eZceEVZ6kA_NZzQR3GiB-45">
          <mxGeometry x="-0.3447" width="80" relative="1" as="geometry">
            <mxPoint x="182" y="720" as="sourcePoint" />
            <mxPoint x="275" y="727" as="targetPoint" />
            <mxPoint as="offset" />
            <Array as="points">
              <mxPoint x="223" y="740" />
            </Array>
          </mxGeometry>
        </mxCell>
        <mxCell id="eZceEVZ6kA_NZzQR3GiB-56" value="duplicata_paga" style="html=1;verticalAlign=bottom;endArrow=block;curved=0;rounded=0;" edge="1" parent="1">
          <mxGeometry x="-0.2" width="80" relative="1" as="geometry">
            <mxPoint x="255" y="644" as="sourcePoint" />
            <mxPoint x="465" y="690" as="targetPoint" />
            <mxPoint as="offset" />
            <Array as="points">
              <mxPoint x="255" y="668" />
              <mxPoint x="465" y="668" />
            </Array>
          </mxGeometry>
        </mxCell>
        <mxCell id="eZceEVZ6kA_NZzQR3GiB-57" value="comprovante_pagto" style="html=1;verticalAlign=bottom;endArrow=block;curved=0;rounded=0;exitX=0.376;exitY=0.993;exitDx=0;exitDy=0;exitPerimeter=0;" edge="1" parent="1" source="eZceEVZ6kA_NZzQR3GiB-45">
          <mxGeometry x="0.1235" width="80" relative="1" as="geometry">
            <mxPoint x="243.39999999999998" y="644.98" as="sourcePoint" />
            <mxPoint x="450" y="690" as="targetPoint" />
            <mxPoint as="offset" />
            <Array as="points">
              <mxPoint x="243" y="690" />
            </Array>
          </mxGeometry>
        </mxCell>
        <mxCell id="eZceEVZ6kA_NZzQR3GiB-58" value="duplicata_paga" style="html=1;verticalAlign=bottom;endArrow=block;curved=0;rounded=0;entryX=0.34;entryY=1.067;entryDx=0;entryDy=0;entryPerimeter=0;" edge="1" parent="1" target="eZceEVZ6kA_NZzQR3GiB-20">
          <mxGeometry x="-0.2" width="80" relative="1" as="geometry">
            <mxPoint x="479" y="690" as="sourcePoint" />
            <mxPoint x="735" y="700" as="targetPoint" />
            <mxPoint as="offset" />
            <Array as="points">
              <mxPoint x="479" y="670" />
              <mxPoint x="649" y="670" />
            </Array>
          </mxGeometry>
        </mxCell>
        <mxCell id="eZceEVZ6kA_NZzQR3GiB-59" value="comprovante_pagto" style="html=1;verticalAlign=bottom;endArrow=block;curved=0;rounded=0;entryX=0.5;entryY=1;entryDx=0;entryDy=0;exitX=1;exitY=0;exitDx=0;exitDy=0;" edge="1" parent="1" source="eZceEVZ6kA_NZzQR3GiB-30" target="eZceEVZ6kA_NZzQR3GiB-20">
          <mxGeometry x="-0.2918" y="-2" width="80" relative="1" as="geometry">
            <mxPoint x="500" y="713" as="sourcePoint" />
            <mxPoint x="665" y="568" as="targetPoint" />
            <mxPoint as="offset" />
            <Array as="points">
              <mxPoint x="500" y="688" />
              <mxPoint x="665" y="688" />
            </Array>
          </mxGeometry>
        </mxCell>
        <mxCell id="eZceEVZ6kA_NZzQR3GiB-61" value="relatorio_pagas" style="html=1;verticalAlign=bottom;endArrow=block;curved=0;rounded=0;exitX=0;exitY=0.5;exitDx=0;exitDy=0;entryX=0.037;entryY=0.42;entryDx=0;entryDy=0;entryPerimeter=0;" edge="1" parent="1" source="eZceEVZ6kA_NZzQR3GiB-45" target="eZceEVZ6kA_NZzQR3GiB-31">
          <mxGeometry x="-0.7233" width="80" relative="1" as="geometry">
            <mxPoint x="239" y="490" as="sourcePoint" />
            <mxPoint x="120" y="840" as="targetPoint" />
            <mxPoint as="offset" />
            <Array as="points">
              <mxPoint x="110" y="610" />
              <mxPoint x="110" y="842" />
            </Array>
          </mxGeometry>
        </mxCell>
        <mxCell id="eZceEVZ6kA_NZzQR3GiB-62" value="relatorio_a_pagar" style="html=1;verticalAlign=bottom;endArrow=block;curved=0;rounded=0;exitX=0;exitY=0.75;exitDx=0;exitDy=0;" edge="1" parent="1" source="eZceEVZ6kA_NZzQR3GiB-45">
          <mxGeometry x="0.7273" y="50" width="80" relative="1" as="geometry">
            <mxPoint x="400" y="890" as="sourcePoint" />
            <mxPoint x="170" y="810" as="targetPoint" />
            <mxPoint y="-1" as="offset" />
            <Array as="points">
              <mxPoint x="170" y="625" />
            </Array>
          </mxGeometry>
        </mxCell>
        <mxCell id="eZceEVZ6kA_NZzQR3GiB-65" value="relatorio_a_pagar" style="html=1;verticalAlign=bottom;endArrow=block;curved=0;rounded=0;entryX=0.383;entryY=0.042;entryDx=0;entryDy=0;entryPerimeter=0;" edge="1" parent="1" target="eZceEVZ6kA_NZzQR3GiB-49">
          <mxGeometry x="-0.1325" width="80" relative="1" as="geometry">
            <mxPoint x="250" y="855" as="sourcePoint" />
            <mxPoint x="380" y="830" as="targetPoint" />
            <mxPoint as="offset" />
            <Array as="points">
              <mxPoint x="378" y="855" />
            </Array>
          </mxGeometry>
        </mxCell>
        <mxCell id="eZceEVZ6kA_NZzQR3GiB-67" value="relatorio_pagas" style="html=1;verticalAlign=bottom;endArrow=block;curved=0;rounded=0;exitX=0.803;exitY=0.93;exitDx=0;exitDy=0;exitPerimeter=0;" edge="1" parent="1">
          <mxGeometry x="0.0909" width="80" relative="1" as="geometry">
            <mxPoint x="230" y="889.58" as="sourcePoint" />
            <mxPoint x="340" y="889.58" as="targetPoint" />
            <mxPoint as="offset" />
            <Array as="points" />
          </mxGeometry>
        </mxCell>
      </root>
    </mxGraphModel>
  </diagram>
</mxfile>
